<svg width="1920" height="692" viewBox="0 0 1920 692" fill="none" xmlns="http://www.w3.org/2000/svg">
<g opacity="0.5">
<path d="M-176.278 672.693C21.4742 611.824 77.7687 414.823 602.463 643.492C1127.16 872.162 1408.99 178.339 1700.57 470.345C1933.83 703.95 2130.71 683.112 2200 643.492" stroke="#DE10FF"/>
<path d="M-177 119.938C-98.332 38.2316 125.475 -82.9028 391.358 86.2138C723.712 297.61 844.24 328.866 1069.06 200.137C1293.87 71.4079 1406.1 86.2138 1535.29 119.938C1756.94 177.8 1855.02 262.24 1936.21 262.24" stroke="#4200FF"/>
<path d="M-176.966 137.013C-97.3355 57.7479 118.838 -60.6881 377.031 99.0289C698.529 299.012 820.234 329.157 1046.84 212.002C1285.94 100.292 1406.24 81.3539 1543.16 127.378C1765.36 193.608 1868.14 273.034 1948.77 271.148" stroke="#4A01FF"/>
<path d="M-176.931 154.135C-96.3388 77.3115 112.202 -38.4261 362.704 111.891C673.346 300.461 796.228 329.495 1024.62 223.915C1278 129.224 1406.38 76.5411 1551.03 134.864C1773.79 209.463 1881.27 283.876 1961.33 280.103" stroke="#5102FF"/>
<path d="M-176.897 171.311C-95.3421 96.9285 105.565 -16.1106 348.377 124.807C648.163 301.964 772.222 329.887 1002.4 235.881C1270.06 158.209 1406.52 71.782 1558.9 142.404C1782.21 225.371 1894.4 294.772 1973.89 289.112" stroke="#5802FF"/>
<path d="M-176.863 188.548C-94.3454 116.607 98.9291 6.26664 334.05 137.785C622.98 303.529 748.217 330.34 980.182 247.909C1262.12 187.255 1406.65 67.0845 1566.77 150.006C1790.63 241.342 1907.53 305.729 1986.46 298.182" stroke="#6003FF"/>
<path d="M-176.828 205.855C-93.3487 136.356 92.2927 28.7141 319.723 150.833C597.797 305.164 724.211 330.864 957.963 260.007C1254.18 216.372 1406.79 62.4574 1574.64 157.677C1799.06 257.382 1920.66 316.756 1999.02 307.323" stroke="#6704FF"/>
<path d="M-176.794 223.245C-92.3522 156.188 85.6561 51.244 305.395 163.963C572.614 306.881 700.205 331.47 935.745 272.187C1246.24 245.572 1406.93 57.9126 1582.51 165.432C1807.48 273.506 1933.79 327.866 2011.58 316.546" stroke="#6F05FF"/>
<path d="M-176.76 240.731C-91.3554 176.115 79.0197 73.8697 291.068 177.189C547.431 308.694 676.199 332.171 913.526 284.463C1238.3 274.867 1407.07 53.4636 1590.38 173.282C1815.9 289.724 1946.92 339.072 2024.14 325.865" stroke="#7605FF"/>
<path d="M-176.725 267.104C-90.3587 204.93 72.3833 105.383 276.741 199.303C522.248 319.395 652.193 341.761 891.307 305.627C1230.36 313.05 1407.2 57.9021 1598.25 190.019C1824.33 314.831 1960.04 359.165 2036.7 344.072" stroke="#7D06FF"/>
<path d="M-176.691 298.215C-89.362 238.482 65.7469 141.633 262.414 226.153C497.065 334.833 628.187 356.087 869.088 331.528C1222.42 355.97 1407.34 67.0779 1606.12 211.494C1832.75 344.674 1973.17 383.995 2049.26 367.015" stroke="#8507FF"/>
<path d="M-176.656 329.355C-88.3655 272.063 59.1103 177.913 248.087 253.034C471.882 350.3 604.181 370.443 846.869 357.459C1214.48 398.919 1407.48 76.2831 1613.99 232.999C1841.17 374.547 1986.3 408.855 2061.82 389.989" stroke="#8C08FF"/>
<path d="M-176.622 360.517C-87.3688 305.667 52.4739 214.215 233.76 279.936C446.699 365.79 580.175 384.821 824.651 383.411C1206.55 441.89 1407.61 85.5102 1621.86 254.525C1849.6 404.442 1999.43 433.737 2074.39 412.984" stroke="#9408FF"/>
<path d="M-176.588 391.696C-86.3721 339.287 45.8376 250.534 219.433 306.855C421.516 381.296 556.169 399.216 802.432 409.38C1198.61 484.879 1407.75 94.7546 1629.73 276.068C1858.02 434.354 2012.56 458.636 2086.95 435.996" stroke="#9B09FF"/>
<path d="M-176.553 422.888C-85.3753 372.921 39.2012 286.866 205.106 333.788C396.333 396.816 532.163 413.624 780.213 435.363C1190.67 527.881 1407.89 104.012 1637.6 297.625C1866.44 464.28 2025.69 483.548 2099.51 459.021" stroke="#A20AFF"/>
<path d="M-176.519 454.091C-84.3789 406.566 32.5646 323.21 190.779 360.732C371.15 412.347 508.157 428.044 757.994 461.357C1182.73 570.894 1408.03 113.281 1645.47 319.193C1874.87 494.216 2038.81 508.471 2112.07 482.058" stroke="#AA0BFF"/>
<path d="M-176.485 485.303C-83.3821 440.22 25.9282 359.562 176.452 387.684C345.967 427.886 484.151 442.472 735.775 487.36C1174.79 613.915 1408.16 122.558 1653.34 340.769C1883.29 524.162 2051.94 533.403 2124.63 505.103" stroke="#B10BFF"/>
<path d="M-176.45 516.523C-82.3854 473.88 19.2918 395.921 162.125 414.644C320.784 443.433 460.145 456.907 713.557 513.369C1166.85 656.944 1408.3 131.843 1661.22 362.353C1891.71 554.114 2065.07 558.342 2137.19 528.156" stroke="#B90CFF"/>
<path d="M-176.416 547.748C-81.3887 507.547 12.6555 432.286 147.798 441.609C295.601 458.986 436.139 471.348 691.338 539.385C1158.91 699.979 1408.44 141.133 1669.09 383.943C1900.14 584.072 2078.2 583.287 2149.75 551.214" stroke="#C00DFF"/>
<path d="M-176.382 578.978C-80.3922 541.219 6.01886 468.656 133.47 468.58C270.418 474.544 412.133 485.795 669.119 565.406C1150.97 743.018 1408.58 150.429 1676.96 405.537C1908.56 614.036 2091.33 608.238 2162.32 574.278" stroke="#C70EFF"/>
<path d="M-176.347 610.213C-79.3955 574.895 -0.617554 505.031 119.143 495.555C245.234 490.106 388.127 500.246 646.9 591.431C1143.03 786.063 1408.71 159.729 1684.83 427.136C1916.98 644.004 2104.46 633.192 2174.88 597.346" stroke="#CF0EFF"/>
<path d="M-176.313 641.451C-78.3988 608.575 -7.2539 541.409 104.816 522.534C220.052 505.672 364.122 514.7 624.681 617.46C1135.1 829.111 1408.85 169.033 1692.7 448.739C1925.4 673.975 2117.59 658.15 2187.44 620.417" stroke="#D60FFF"/>
</g>
</svg>
