<svg width="627" height="129" viewBox="0 0 627 129" fill="none" xmlns="http://www.w3.org/2000/svg">
<path d="M-65 43.2847C-9.92765 13.7649 9.88548 -16.4309 81.4281 13.0889C139.503 37.0516 154.659 75.3201 230.834 55.49C307.009 35.6599 316.143 -12.1494 387.686 13.0889C459.229 38.3272 507.975 30.4402 531.136 18.0464C554.297 5.6526 584.545 -4.71312 618 13.0889" stroke="#C000DF" stroke-linejoin="round"/>
<path d="M-49 104C-18.0474 70.0295 32.6354 24.5016 96.9904 56.9929C177.434 97.607 222.125 119.042 308.527 84.069C394.93 49.0957 426.214 8.48156 512.616 65.2661C581.738 110.694 649.834 71.5338 674 65.2661" stroke="#7343DB" stroke-linejoin="round"/>
<path d="M-64 52.2053C-9.25187 18.3301 11.1718 -16.458 82.5127 15.8519C140.651 41.9602 156.918 84.489 233.172 63.2493C311.792 43.3456 322.936 -8.83442 397.306 17.4141C471.676 43.6627 520.996 32.6343 547.936 21.9159C574.029 10.5749 607.018 -3.14009 641 16.3833" stroke="#BC03DF"/>
<path d="M-63 55.1033C-10.1891 21.7966 10.265 -12.5482 79.3088 17.614C135.809 41.8584 152.744 82.2521 226.847 62.9239C305.679 46.2795 318.567 -2.27261 393.669 20.7523C468.771 43.7772 517.239 30.9053 547.279 23.9608C575.626 15.7656 610.472 0.414139 644 18.6815" stroke="#B906DF"/>
<path d="M-62 57.1804C-11.1266 25.0134 9.35779 -8.29803 76.1042 19.2131C130.966 41.1902 148.569 78.7684 220.52 61.6698C299.566 48.5448 314.197 4.42928 390.031 23.8598C465.866 43.2903 513.481 28.8132 546.622 25.7306C577.222 20.796 613.925 4.08758 647 20.7937" stroke="#B50ADF"/>
<path d="M-61 59.0631C-12.1332 27.5134 8.35263 -5.30402 72.7107 20.0195C125.859 40.1011 144.104 75.4888 213.804 60.3258C292.953 50.4767 309.304 10.0527 385.763 26.2334C462.223 42.4141 508.919 26.1179 545.11 26.8095C577.919 25.0247 616.424 6.70737 649 22.1331" stroke="#B10DDE"/>
<path d="M-60 61.952C-13.0684 31.0418 7.44779 -1.25941 69.5112 21.8497C121.024 40.0137 139.936 73.1781 207.486 59.9701C286.848 53.4201 304.941 16.7314 382.132 29.6354C459.324 42.5393 505.167 24.4241 544.456 28.9097C579.516 30.2923 619.877 10.3686 652 24.498" stroke="#AE10DE"/>
<path d="M-60 64C-14.941 33.6573 5.63441 1.79593 65.4864 22.7321C115.433 39.0097 135.039 70.017 200.531 58.7453C280.218 55.5019 300.08 22.4845 378.113 32.1201C456.145 41.7557 501.2 21.7634 543.646 30.0814C581.011 34.6577 623.285 13.0666 655 25.9254" stroke="#AA13DE"/>
<path d="M-59 67C-15.9398 37.2898 4.63712 5.93539 62.11 24.6399C110.35 38.984 130.595 67.7556 193.846 58.4577C273.635 58.5529 295.212 29.3011 373.867 35.6239C452.522 41.9466 496.662 20.1029 542.147 32.2661C581.712 40.0517 625.783 16.8235 657 28.3761" stroke="#A616DE"/>
<path d="M-58 69C-16.876 40.5646 3.7313 10.3976 58.9084 26.4961C105.511 38.6233 126.424 64.5637 187.524 57.4116C267.527 60.7887 290.845 35.8834 370.233 38.8086C449.62 41.7338 492.907 18.5487 541.492 34.2271C583.309 44.9984 629.236 20.6701 660 30.6842" stroke="#A319DE"/>
<path d="M-57 72C-17.8125 43.6702 2.82516 13.4498 55.706 27.6004C100.671 38.0059 122.252 62.1784 181.201 56.8816C261.418 63.6865 286.478 42.1104 366.598 41.7517C446.718 41.3929 489.152 15.9082 540.836 35.7551C584.906 49.9621 632.689 23.5289 663 32.414" stroke="#9F1DDD"/>
<path d="M-57 75C-19.7493 47.4258 0.918707 17.8421 51.503 29.6816C94.8309 38.0923 117.079 59.9081 173.877 56.6256C254.307 66.7724 281.11 49.0865 361.962 45.3852C442.814 41.684 484.396 14.4357 539.18 38.082C585.503 55.4697 635.142 27.4933 665 35.0232" stroke="#9B20DD"/>
<path d="M-56 79C-20.6864 52.2713 0.0119354 23.4219 48.2993 32.9234C89.9894 39.3225 112.905 58.7208 167.551 57.4519C248.195 70.886 276.741 57.1278 358.326 50.1165C439.91 43.1053 480.639 14.1972 538.523 41.5394C587.1 62.0293 638.595 32.6147 668 38.7717" stroke="#9823DD"/>
<path d="M-55 84C-21.5779 57.8742 -0.820618 29.4971 45.2328 36.7476C85.34 41.1938 108.955 58.3514 161.522 59.0839C242.491 75.9259 272.822 65.9693 355.252 55.5856C437.683 45.2019 477.613 14.3725 538.683 45.6572C589.583 69.4341 643.009 38.315 672 43.1554" stroke="#9426DD"/>
<path d="M-54 90C-22.5616 64.5028 -1.80254 36.6246 41.8899 41.6004C80.3036 44.0745 104.554 58.9598 154.896 61.709C235.968 81.9726 268 75.8559 351.05 62.0812C434.099 48.3065 473.122 15.5652 537.208 50.7988C590.293 77.8697 645.502 45.0575 674 48.567" stroke="#9029DC"/>
<path d="M-54 95C-24.4592 70.5791 -3.64135 43.6913 37.8097 46.3282C74.6353 46.8074 99.5876 59.1796 147.843 63.8747C229.239 87.1619 263.062 84.9527 346.959 68.0691C430.856 51.1855 469.077 17.1364 536.358 55.6483C591.773 85.4954 648.917 51.5932 677 53.7234" stroke="#8D2CDC"/>
<path d="M-53 101C-25.4003 76.8134 -4.55214 49.9878 34.5972 50.3643C69.7816 48.8542 95.4025 59.129 141.502 65.9439C223.112 93.0801 258.681 94.7234 343.311 74.1273C427.941 53.5313 465.308 16.9848 535.694 60.1305C593.367 93.8055 652.371 57.63 680 58.4474" stroke="#8930DC"/>
<path d="M-52 106C-26.3766 82.8552 -5.52655 56.9862 31.2707 55.0753C64.768 51.6134 91.0219 59.4349 134.905 68.1561C216.617 98.2617 253.882 103.727 339.129 80.0815C424.377 56.4355 460.839 18.5936 534.232 64.965C594.081 101.37 654.863 64.1124 682 63.5812" stroke="#8633DC"/>
<path d="M-51 112C-27.3155 89.5124 -6.43515 64.1724 28.063 59.9681C59.921 54.5198 86.8429 60.0407 128.573 70.7882C210.498 104.316 249.507 113.651 335.488 86.6072C421.468 59.5631 457.076 19.8294 533.572 70.1394C595.677 109.832 658.316 70.9031 685 69.0295" stroke="#8236DC"/>
<path d="M-51 117C-29.2253 95.1795 -8.28626 70.3785 23.956 63.8707C54.2154 56.4276 81.8428 59.6349 121.472 72.4157C203.723 109.374 244.532 122.594 331.362 92.143C418.193 61.6917 452.995 20.0685 532.702 74.322C597.15 117.308 661.734 76.7099 688 73.4876" stroke="#7E39DB"/>
<path d="M-50 123C-30.1943 101.855 -9.25326 77.6015 20.6456 68.7815C49.2242 59.3366 77.4824 60.2191 114.904 75.039C197.257 115.433 239.755 132.554 327.201 98.6874C414.647 64.8212 448.548 21.3103 531.251 79.5114C597.868 125.794 664.224 83.5301 690 78.954" stroke="#7B3CDB"/>
<path d="M-49 128C-31.1341 107.81 -10.1627 84.4277 17.436 73.4364C44.3745 62.1364 73.3009 60.704 108.568 77.3433C191.135 120.595 235.378 141.346 323.557 104.556C411.736 67.7651 444.783 22.9733 530.59 84.2973C599.463 133.219 667.678 89.877 693 84.0217" stroke="#773FDB"/>
</svg>
