<svg width="1920" height="1080" viewBox="0 0 1920 1080" fill="none" xmlns="http://www.w3.org/2000/svg">
<g opacity="0.7">
<path d="M-51 397C270 238 238.5 672.5 616.5 243.5C994.5 -185.5 1036.5 158.5 1397.5 96C1758.5 33.5 1724.5 -231 1883.5 -148.5" stroke="#000AFF"/>
<path d="M-11 675C330 806 392 623.5 625 800C858 976.5 1014 752 1238.5 882.5C1463 1013 1608 817.5 1809.5 985C1970.7 1119 2058.33 1194.17 2082 1215" stroke="#DE10FF"/>
<path d="M-49.0952 385.065C120 315.589 191.881 372.493 278.69 414.351C365.5 456.208 455.429 446.827 646.119 248.755C1016.81 -153.602 1063.71 164.708 1417.12 113.16C1768.6 60.0173 1740.4 -188.308 1892.95 -108.745" stroke="#0B0AFF"/>
<path d="M-47.1904 373.148C130.5 313.696 201.887 358.631 296.006 407.22C390.125 455.809 483.357 435.672 675.738 254.029C1039.12 -121.685 1090.93 170.934 1436.74 130.339C1778.71 86.5532 1756.29 -145.598 1902.4 -68.9706" stroke="#150BFF"/>
<path d="M-45.2856 361.255C141 311.826 211.893 344.79 313.322 400.112C414.75 455.433 511.286 424.54 705.357 259.326C1061.43 -89.7453 1118.14 177.183 1456.36 147.54C1788.81 113.112 1772.19 -102.864 1911.86 -29.1738" stroke="#200BFF"/>
<path d="M-43.3809 349.389C151.5 309.984 221.899 330.978 330.637 393.032C439.375 455.086 539.214 413.437 734.976 264.651C1083.74 -57.7776 1145.36 183.461 1475.98 164.77C1798.92 139.699 1788.09 -60.103 1921.31 10.651" stroke="#2A0BFF"/>
<path d="M-41.4761 337.559C162 308.178 231.905 317.202 347.952 385.987C464 454.773 567.143 402.368 764.595 270.011C1106.05 -25.7746 1172.57 189.773 1495.6 182.035C1809.02 166.321 1803.98 -17.3063 1930.76 50.5111" stroke="#350CFF"/>
<path d="M-39.5713 325.774C172.5 306.416 241.911 303.47 365.268 378.988C488.625 454.506 595.072 391.345 794.214 275.416C1128.36 6.27357 1199.79 196.131 1515.21 199.345C1819.13 192.988 1819.88 25.5355 1940.21 90.4164" stroke="#3F0CFF"/>
<path d="M-37.6665 314.048C183 304.714 251.917 289.798 382.583 372.048C513.25 454.298 623 380.381 823.833 280.881C1150.67 38.3809 1227 202.548 1534.83 216.714C1829.23 219.714 1835.78 68.4365 1949.67 130.381" stroke="#4A0CFF"/>
<path d="M-35.7617 302.402C193.5 303.092 261.923 276.205 399.899 365.187C537.875 454.17 650.929 369.497 853.453 286.425C1172.98 70.5683 1254.21 209.045 1554.45 234.164C1839.34 246.521 1851.67 111.418 1959.12 170.425" stroke="#540CFF"/>
<path d="M-33.8569 300.867C204 311.582 271.929 272.724 417.215 368.439C562.5 464.153 678.857 368.724 883.072 302.082C1195.29 112.867 1281.43 225.653 1574.07 261.725C1849.44 283.439 1867.57 164.51 1968.57 220.582" stroke="#5F0DFF"/>
<path d="M-31.9521 311.24C214.5 331.978 281.935 281.151 434.53 383.597C587.125 486.044 706.786 379.859 912.691 329.645C1217.6 167.074 1308.64 254.169 1593.69 301.193C1859.55 332.264 1883.47 229.51 1978.02 282.645" stroke="#690DFF"/>
<path d="M-30.0479 321.666C225 352.428 291.94 289.63 451.845 398.809C611.75 507.987 734.714 391.047 942.309 357.261C1239.9 221.332 1335.86 282.737 1613.31 340.713C1869.65 381.142 1899.36 294.563 1987.48 344.761" stroke="#740DFF"/>
<path d="M-28.1431 332.167C235.5 372.953 301.946 298.185 469.16 414.096C636.375 530.007 762.643 402.31 971.928 384.953C1262.21 275.667 1363.07 311.382 1632.93 380.31C1879.76 430.096 1915.26 359.691 1996.93 406.953" stroke="#7F0DFF"/>
<path d="M-26.2383 355.269C246 406.078 311.952 319.34 486.476 441.983C661 564.626 790.571 426.173 1001.55 425.245C1284.52 342.602 1390.29 352.626 1652.55 432.507C1889.86 491.65 1931.16 437.419 2006.38 481.745" stroke="#890EFF"/>
<path d="M-24.3335 395.235C256.5 456.068 321.958 357.36 503.792 486.735C685.625 616.11 818.5 466.902 1031.17 482.402C1306.83 426.402 1417.5 410.735 1672.17 501.568C1899.97 570.068 1947.06 532.013 2015.83 573.402" stroke="#940EFF"/>
<path d="M-22.4287 435.201C267 506.059 331.964 395.38 521.107 531.487C710.25 667.594 846.428 507.63 1060.79 539.559C1329.14 510.201 1444.71 468.844 1691.79 570.63C1910.07 648.487 1962.95 626.606 2025.29 665.059" stroke="#9E0EFF"/>
<path d="M-20.5239 475.168C277.5 556.049 341.97 433.4 538.422 576.239C734.875 719.079 874.357 548.358 1090.4 596.716C1351.45 594.001 1471.93 526.954 1711.4 639.692C1920.18 726.906 1978.85 721.2 2034.74 756.716" stroke="#A90FFF"/>
<path d="M-18.6191 515.134C288 606.039 351.976 471.42 555.738 620.991C759.5 770.563 902.286 589.087 1120.02 653.872C1373.76 677.801 1499.14 585.063 1731.02 708.753C1930.28 805.325 1994.75 815.793 2044.19 848.372" stroke="#B30FFF"/>
<path d="M-16.7144 555.101C298.5 656.029 361.982 509.44 573.054 665.744C784.125 822.047 930.214 629.815 1149.64 711.029C1396.07 761.601 1526.36 643.172 1750.64 777.815C1940.39 883.744 2010.64 910.386 2053.64 940.029" stroke="#BE0FFF"/>
<path d="M-14.8096 595.067C309 706.02 371.988 547.46 590.369 710.496C808.75 873.531 958.143 670.543 1179.26 768.186C1418.38 845.4 1553.57 701.281 1770.26 846.877C1950.49 962.162 2026.54 1004.98 2063.1 1031.69" stroke="#C80FFF"/>
<path d="M-12.9048 635.034C319.5 756.01 381.994 585.48 607.685 755.248C833.375 925.016 986.071 711.272 1208.88 825.343C1440.69 929.2 1580.79 759.391 1789.88 915.938C1960.6 1040.58 2042.44 1099.57 2072.55 1123.34" stroke="#D310FF"/>
</g>
</svg>
