<svg width="1920" height="1826" viewBox="0 0 1920 1826" fill="none" xmlns="http://www.w3.org/2000/svg">
<g opacity="0.5">
<path d="M-20.2173 1562.91C-209.535 1049.27 341.638 1310.85 551.803 1153.21C761.967 995.566 706.062 831.416 1043.73 885.807C1381.39 940.197 1599.77 1252.07 1741.3 1265.42C1854.52 1276.1 1956.19 1209.82 1992.88 1175.35" stroke="#5870C4" stroke-width="2"/>
<path d="M-583.906 1027.48C-516.704 665.367 -610.328 406.953 -165.749 535.093C278.83 663.232 470.738 849.226 733.339 592.305C995.94 335.383 1427.2 -1.96642 1566.31 293.415C1705.42 588.796 1579.78 1063.71 1870.49 909.162C2161.19 754.612 2346.09 708.392 2415.75 1033.28C2471.47 1293.19 2694.04 1402.26 2798.36 1424.31" stroke="#6B3A91" stroke-width="2"/>
<path d="M-47.6137 1541.24C-134.632 1279.44 -52.8581 1207.2 101.899 1195.61C256.656 1184.02 447.065 1217.55 559.583 1130.33C772.223 967.999 739.313 795.674 1067.61 861.44C1235.03 901.294 1361.55 1010.96 1484.37 1086.02C1607.18 1161.08 1701.63 1236.36 1772.34 1258.06C1882.85 1280.5 1990.23 1222.5 2030.11 1190.7" stroke="#8C9EEA" stroke-width="2"/>
<path d="M-80.0782 1515.54C-158.042 1247.86 -86.5661 1164.69 85.2083 1161.3C256.983 1157.91 447.479 1200.4 568.809 1103.21C784.383 935.328 778.727 753.313 1095.91 832.56C1261.68 887.418 1373.39 1018.53 1506.06 1080.1C1638.73 1141.68 1738.5 1209.84 1809.15 1249.33C1916.43 1285.72 2030.58 1237.53 2074.24 1208.89" stroke="#38479B" stroke-width="2"/>
<path d="M-117.608 1485.84C-185.102 1211.34 -125.534 1115.53 65.9167 1121.63C257.367 1127.73 447.965 1180.57 579.485 1071.85C798.45 897.551 824.307 704.332 1128.65 799.169C1292.49 871.374 1387.09 1027.28 1531.15 1073.27C1675.22 1119.26 1781.13 1179.16 1851.71 1239.25C1955.27 1291.75 2077.24 1254.91 2125.28 1229.92" stroke="#8891DE" stroke-width="2"/>
<path d="M-160.199 1452.12C-215.808 1169.89 -169.757 1059.73 44.0287 1076.6C257.814 1093.47 448.528 1158.05 591.613 1036.26C814.429 854.671 876.056 648.735 1165.82 761.266C1327.48 853.164 1402.64 1037.22 1559.65 1065.51C1716.65 1093.81 1829.53 1144.35 1900.03 1227.79C1999.37 1298.6 2130.22 1274.63 2183.22 1253.79" stroke="#858AD7" stroke-width="2"/>
<path d="M-207.846 1414.38C-250.155 1123.51 -219.23 997.293 19.549 1026.21C258.328 1055.13 449.171 1132.86 605.2 996.438C832.324 806.687 933.981 586.52 1207.43 718.853C1366.65 832.786 1420.06 1048.34 1591.55 1056.83C1763.03 1065.33 1883.71 1105.39 1954.12 1214.98C2048.74 1306.27 2189.51 1296.7 2248.07 1280.51" stroke="#8281D0" stroke-width="2"/>
<path d="M-260.542 1372.65C-288.137 1072.2 -273.947 928.221 -7.5151 970.469C258.917 1012.72 449.903 1105 620.251 952.386C852.142 753.609 998.087 517.696 1253.48 671.938C1410 810.252 1439.36 1060.65 1626.86 1047.24C1814.37 1033.83 1943.68 1062.3 2013.98 1200.82C2103.37 1314.76 2255.14 1321.14 2319.85 1310.08" stroke="#7F78C7" stroke-width="2"/>
<path d="M-318.274 1326.89C-329.739 1015.95 -333.894 852.5 -37.1504 909.363C259.593 966.226 450.736 1074.45 636.781 904.091C873.897 695.421 1068.39 442.249 1304 620.505C1457.55 785.544 1460.54 1074.15 1665.6 1036.72C1870.67 999.292 2009.43 1015.05 2079.63 1185.28C2163.29 1324.06 2327.11 1347.91 2398.55 1342.49" stroke="#7C6DBE" stroke-width="2"/>
<path d="M-381.027 1277.12C-374.947 954.769 -399.055 770.142 -69.3414 842.901C260.373 915.66 451.686 1041.23 654.805 851.564C897.605 632.133 1144.9 360.188 1358.99 564.565C1509.32 758.673 1483.62 1088.83 1707.79 1025.28C1931.95 961.731 2081.01 963.668 2151.08 1168.39C2228.51 1334.19 2405.43 1377.04 2484.21 1377.75" stroke="#7862B4" stroke-width="2"/>
<path d="M-448.767 1223.35C-423.728 888.664 -469.399 681.149 -104.055 771.086C261.288 861.023 452.786 1005.34 674.355 794.808C923.298 563.749 1227.66 271.516 1418.49 504.121C1565.34 729.642 1508.64 1104.7 1753.44 1012.92C1998.25 921.148 2158.42 908.148 2228.36 1150.14C2299.06 1345.13 2490.14 1408.53 2576.84 1415.85" stroke="#7456A9" stroke-width="2"/>
<path d="M-521.424 1165.58C-476.011 817.637 -544.854 585.527 -141.222 693.924C262.41 802.321 454.106 966.775 695.503 733.829C951.045 490.272 1316.73 176.238 1482.56 439.178C1625.67 698.457 1535.66 1121.77 1802.65 999.659C2069.63 877.549 2241.76 848.497 2311.56 1130.55C2375.02 1356.91 2581.31 1442.37 2676.53 1456.81" stroke="#6F489D" stroke-width="2"/>
</g>
</svg>
