<svg width="1920" height="526" viewBox="0 0 1920 526" fill="none" xmlns="http://www.w3.org/2000/svg">
<g opacity="0.5">
<path d="M-176.278 511.887C21.4742 465.591 77.7687 315.752 602.463 489.677C1127.16 663.602 1408.99 135.884 1700.57 357.982C1933.83 535.661 2130.71 519.812 2200 489.677" stroke="#DE10FF"/>
<path d="M-177 91.4641C-98.332 29.3183 125.475 -62.8161 391.358 65.8133C723.712 226.6 844.24 250.374 1069.06 152.463C1293.87 54.552 1406.1 65.8133 1535.29 91.4641C1756.94 135.473 1855.02 199.698 1936.21 199.698" stroke="#4200FF"/>
<path d="M-176.966 104.451C-97.3355 44.1622 118.838 -45.9198 377.031 75.5604C698.529 227.667 820.234 250.595 1046.84 161.488C1285.94 76.5211 1406.24 62.1168 1543.16 97.1222C1765.36 147.497 1868.14 207.908 1948.77 206.473" stroke="#4A01FF"/>
<path d="M-176.931 117.474C-96.3388 59.0422 112.202 -28.9873 362.704 85.3435C673.346 228.769 796.228 250.852 1024.62 170.548C1278 98.5264 1406.38 58.4563 1551.03 102.816C1773.79 159.556 1881.27 216.155 1961.33 213.285" stroke="#5102FF"/>
<path d="M-176.897 130.538C-95.3421 73.9629 105.565 -12.0142 348.377 95.1673C648.163 229.912 772.222 251.15 1002.4 179.65C1270.06 120.572 1406.52 54.8365 1558.9 108.551C1782.21 171.656 1894.4 224.442 1973.89 220.137" stroke="#5802FF"/>
<path d="M-176.863 143.648C-94.3454 88.9305 98.9291 5.00573 334.05 105.038C622.98 231.102 748.217 251.495 980.182 188.798C1262.12 142.665 1406.65 51.2636 1566.77 114.333C1790.63 183.803 1907.53 232.776 1986.46 227.036" stroke="#6003FF"/>
<path d="M-176.828 156.812C-93.3487 103.952 92.2927 22.0794 319.723 114.962C597.797 232.346 724.211 251.893 957.963 198C1254.18 164.812 1406.79 47.7443 1574.64 120.168C1799.06 196.004 1920.66 241.163 1999.02 233.988" stroke="#6704FF"/>
<path d="M-176.794 170.039C-92.3522 119.035 85.6561 39.2155 305.395 124.949C572.614 233.652 700.205 252.354 935.745 207.264C1246.24 187.02 1406.93 44.2876 1582.51 126.066C1807.48 208.267 1933.79 249.613 2011.58 241.003" stroke="#6F05FF"/>
<path d="M-176.76 183.339C-91.3554 134.192 79.0197 56.4244 291.068 135.009C547.431 235.031 676.199 252.888 913.526 216.601C1238.3 209.302 1407.07 40.9036 1590.38 132.037C1815.9 220.603 1946.92 258.136 2024.14 248.091" stroke="#7605FF"/>
<path d="M-176.725 203.398C-90.3587 156.108 72.3833 80.3932 276.741 151.828C522.248 243.17 652.193 260.181 891.307 232.698C1230.36 238.344 1407.2 44.2795 1598.25 144.768C1824.33 239.698 1960.04 273.419 2036.7 261.939" stroke="#7D06FF"/>
<path d="M-176.691 227.061C-89.362 181.628 65.7469 107.965 262.414 172.251C497.065 254.912 628.187 271.078 869.088 252.399C1222.42 270.989 1407.34 51.2586 1606.12 161.101C1832.75 262.397 1973.17 292.305 2049.26 279.39" stroke="#8507FF"/>
<path d="M-176.656 250.745C-88.3655 207.17 59.1103 135.56 248.087 192.696C471.882 266.677 604.181 281.997 846.869 272.121C1214.48 303.656 1407.48 58.2601 1613.99 177.457C1841.17 285.119 1986.3 311.213 2061.82 296.863" stroke="#8C08FF"/>
<path d="M-176.622 274.447C-87.3688 232.728 52.4739 163.171 233.76 213.158C446.699 278.458 580.175 292.933 824.651 291.86C1206.55 336.34 1407.61 65.2782 1621.86 193.83C1849.6 307.857 1999.43 330.138 2074.39 314.353" stroke="#9408FF"/>
<path d="M-176.588 298.162C-86.3721 258.3 45.8376 190.795 219.433 233.632C421.516 290.252 556.169 303.882 802.432 311.613C1198.61 369.037 1407.75 72.3094 1629.73 210.216C1858.02 330.608 2012.56 349.076 2086.95 331.856" stroke="#9B09FF"/>
<path d="M-176.553 321.886C-85.3753 283.882 39.2012 218.429 205.106 254.117C396.333 302.056 532.163 314.841 780.213 331.375C1190.67 401.744 1407.89 79.3507 1637.6 226.612C1866.44 353.369 2025.69 368.024 2099.51 349.37" stroke="#A20AFF"/>
<path d="M-176.519 345.62C-84.3789 309.472 32.5646 246.071 190.779 274.611C371.15 313.869 508.157 325.808 757.994 351.146C1182.73 434.459 1408.03 86.4003 1645.47 243.016C1874.87 376.139 2038.81 386.981 2112.07 366.891" stroke="#AA0BFF"/>
<path d="M-176.485 369.359C-83.3821 335.069 25.9282 273.721 176.452 295.111C345.967 325.688 484.151 336.782 735.775 370.923C1174.79 467.181 1408.16 93.4567 1653.34 259.427C1883.29 398.915 2051.94 405.944 2124.63 384.419" stroke="#B10BFF"/>
<path d="M-176.45 393.104C-82.3854 360.671 19.2918 301.375 162.125 315.616C320.784 337.513 460.145 347.761 713.557 390.706C1166.85 499.908 1408.3 100.518 1661.22 275.844C1891.71 421.696 2065.07 424.912 2137.19 401.953" stroke="#B90CFF"/>
<path d="M-176.416 416.854C-81.3887 386.278 12.6555 329.035 147.798 336.126C295.601 349.342 436.139 358.745 691.338 410.494C1158.91 532.641 1408.44 107.585 1669.09 292.265C1900.14 444.483 2078.2 443.886 2149.75 419.491" stroke="#C00DFF"/>
<path d="M-176.382 440.608C-80.3922 411.889 6.01886 356.698 133.47 356.64C270.418 361.176 412.133 369.733 669.119 430.285C1150.97 565.377 1408.58 114.655 1676.96 308.69C1908.56 467.273 2091.33 462.863 2162.32 437.033" stroke="#C70EFF"/>
<path d="M-176.347 464.365C-79.3955 437.503 -0.617554 384.364 119.143 377.157C245.234 373.012 388.127 380.724 646.9 450.08C1143.03 598.116 1408.71 121.729 1684.83 325.118C1916.98 490.066 2104.46 481.843 2174.88 454.578" stroke="#CF0EFF"/>
<path d="M-176.313 488.125C-78.3988 463.12 -7.2539 412.033 104.816 397.677C220.052 384.851 364.122 391.718 624.681 469.877C1135.1 630.858 1408.85 128.805 1692.7 341.549C1925.4 512.862 2117.59 500.826 2187.44 472.127" stroke="#D60FFF"/>
</g>
</svg>
