<svg width="50" height="60" viewBox="0 0 50 60" fill="none" xmlns="http://www.w3.org/2000/svg">
<g clip-path="url(#clip0_105_1174)">
<path d="M25.0112 16.5234C17.913 16.5234 12.1875 22.5352 12.1875 29.9883C12.1875 37.4414 17.913 43.4531 25.0112 43.4531C32.1094 43.4531 37.8348 37.4414 37.8348 29.9883C37.8348 22.5352 32.1094 16.5234 25.0112 16.5234ZM25.0112 38.7422C20.4241 38.7422 16.6741 34.8164 16.6741 29.9883C16.6741 25.1602 20.413 21.2344 25.0112 21.2344C29.6094 21.2344 33.3482 25.1602 33.3482 29.9883C33.3482 34.8164 29.5982 38.7422 25.0112 38.7422ZM41.3505 15.9727C41.3505 17.7188 40.0112 19.1133 38.3594 19.1133C36.6964 19.1133 35.3683 17.707 35.3683 15.9727C35.3683 14.2383 36.7076 12.832 38.3594 12.832C40.0112 12.832 41.3505 14.2383 41.3505 15.9727ZM49.8438 19.1602C49.654 14.9531 48.7388 11.2266 45.8036 8.15625C42.8795 5.08594 39.3304 4.125 35.3237 3.91406C31.1942 3.66797 18.817 3.66797 14.6875 3.91406C10.692 4.11328 7.14287 5.07422 4.2076 8.14453C1.27233 11.2148 0.368312 14.9414 0.167419 19.1484C-0.0669556 23.4844 -0.0669556 36.4805 0.167419 40.8164C0.357152 45.0234 1.27233 48.75 4.2076 51.8203C7.14287 54.8906 10.6808 55.8516 14.6875 56.0625C18.817 56.3086 31.1942 56.3086 35.3237 56.0625C39.3304 55.8633 42.8795 54.9023 45.8036 51.8203C48.7277 48.75 49.6429 45.0234 49.8438 40.8164C50.0781 36.4805 50.0781 23.4961 49.8438 19.1602ZM44.5089 45.4688C43.6384 47.7656 41.9531 49.5352 39.7545 50.4609C36.4621 51.832 28.6496 51.5156 25.0112 51.5156C21.3728 51.5156 13.5491 51.8203 10.2679 50.4609C8.08037 49.5469 6.3951 47.7773 5.5134 45.4688C4.2076 42.0117 4.50894 33.8086 4.50894 29.9883C4.50894 26.168 4.21876 17.9531 5.5134 14.5078C6.38394 12.2109 8.0692 10.4414 10.2679 9.51562C13.5603 8.14453 21.3728 8.46094 25.0112 8.46094C28.6496 8.46094 36.4732 8.15625 39.7545 9.51562C41.942 10.4297 43.6272 12.1992 44.5089 14.5078C45.8147 17.9648 45.5134 26.168 45.5134 29.9883C45.5134 33.8086 45.8147 42.0234 44.5089 45.4688Z" fill="white"/>
</g>
<defs>
<clipPath id="clip0_105_1174">
<rect width="50" height="60" fill="white"/>
</clipPath>
</defs>
</svg>
