<svg width="50" height="50" viewBox="0 0 50 50" fill="none" xmlns="http://www.w3.org/2000/svg">
<path d="M46.137 6.55183C45.387 5.91583 44.209 5.82483 42.991 6.31383H42.989C41.708 6.82783 6.72802 21.8318 5.30402 22.4448C5.04502 22.5348 2.78302 23.3788 3.01602 25.2588C3.22402 26.9538 5.04202 27.6558 5.26402 27.7368L14.157 30.7818C14.747 32.7458 16.922 39.9918 17.403 41.5398C17.703 42.5048 18.192 43.7728 19.049 44.0338C19.801 44.3238 20.549 44.0588 21.033 43.6788L26.47 38.6358L35.247 45.4808L35.456 45.6058C36.052 45.8698 36.623 46.0018 37.168 46.0018C37.589 46.0018 37.993 45.9228 38.379 45.7648C39.694 45.2248 40.22 43.9718 40.275 43.8298L46.831 9.75283C47.231 7.93283 46.675 7.00683 46.137 6.55183ZM22 31.9998L19 39.9998L16 29.9998L39 12.9998L22 31.9998Z" fill="white"/>
</svg>
