<svg width="20" height="20" viewBox="0 0 20 20" fill="none" xmlns="http://www.w3.org/2000/svg">
<path d="M4.93151 6.91642L5.89041 5.46187C4.38356 3.09823 2.19178 1.82551 0 1.82551V3.64369C1.78082 3.64369 3.56164 4.7346 4.79452 6.55278L4.93151 6.91642ZM15.2055 15.4619C13.5616 15.4619 12.0548 14.5528 10.8219 13.0982L10 14.5528C11.3699 16.371 13.2877 17.2801 15.2055 17.2801V20.0073L20 16.371L15.2055 12.7346V15.4619ZM15.2055 4.55278V7.28005L20 3.64369L15.2055 0.00732422V2.7346C13.0137 2.7346 10.8219 4.00733 9.45206 6.37096L4.79452 13.4619C3.56164 15.2801 1.78082 16.371 0 16.371V18.1891C2.19178 18.1891 4.38356 16.9164 5.75343 14.5528L10.411 7.46187C11.6438 5.64369 13.4247 4.55278 15.2055 4.55278Z" fill="#FFDBDB"/>
</svg>
