<svg width="20" height="20" viewBox="0 0 20 20" fill="none" xmlns="http://www.w3.org/2000/svg">
<path d="M6.42857 4.17399H12.8571V6.67399L17.8571 3.34066L12.8571 0.00732422V2.50733H6.42857C2.85714 2.50733 0 5.84066 0 10.0073C0 11.0073 0.142857 12.0073 0.571429 13.0073L1.85714 12.174C1.57143 11.5073 1.42857 10.8407 1.42857 10.0073C1.42857 6.84066 3.71429 4.17399 6.42857 4.17399ZM19.4286 7.00733L18.1429 7.84066C18.4286 8.50733 18.5714 9.17399 18.5714 10.0073C18.5714 13.174 16.2857 15.8407 13.5714 15.8407H7.14286V13.3407L2.14286 16.674L7.14286 20.0073V17.5073H13.5714C17.1429 17.5073 20 14.174 20 10.0073C20 9.00733 19.8572 8.00733 19.4286 7.00733Z" fill="#B2B2B2"/>
</svg>
