<svg width="20" height="20" viewBox="0 0 20 20" fill="none" xmlns="http://www.w3.org/2000/svg">
<path d="M16.3192 1.25732L15.4973 2.21921C17.4854 4.06229 18.7372 6.68699 18.7372 9.60415C18.7372 12.5213 17.4841 15.146 15.4973 16.9891L16.318 17.951C17.478 16.8919 18.4045 15.6028 19.0384 14.1657C19.6724 12.7286 19.9999 11.1751 20 9.60443C20.0001 8.03372 19.6729 6.48023 19.0391 5.04305C18.4054 3.60586 17.4791 2.31654 16.3192 1.25732ZM13.455 4.61068L12.6343 5.57256C13.1698 6.09879 13.595 6.72639 13.8852 7.41874C14.1755 8.11109 14.3249 8.85432 14.3248 9.60505C14.3246 10.3558 14.175 11.099 13.8845 11.7912C13.5941 12.4835 13.1687 13.1109 12.6331 13.637L13.4538 14.5989C14.7648 13.3382 15.5855 11.5683 15.5855 9.60541C15.5855 7.64257 14.7661 5.87134 13.455 4.61068ZM0 5.82217V13.3861H3.53489L10.0853 17.1681V2.04019L3.53489 5.82217H0ZM8.82462 4.22366V14.9846L3.87275 12.1255H1.26066V7.08283H3.87275L8.82462 4.22366Z" fill="#B2B2B2"/>
</svg>
